<svg id="img" stroke="none" viewBox="0 0 1000 1004.1441" xmlns="http://www.w3.org/2000/svg"><path d="m896 42.144c55 0 100 45 104 101v749c0 29-11 56-30 76-18 18-41 29-66 31l-8 1h-792c-55 0-100-45-104-102v-748c0-57 43-104 97-108zm62 208h-916v642c0 35 25 63 56 66h798c17 0 32-6 44-18 10-11 17-25 18-41zm-404 174c10 3 15 13 13 23l-1 4-127 323c-4 11-16 16-27 11-10-3-15-13-13-23l1-4 127-323c4-10 17-15 27-11zm-215 15c7 7 8 18 3 27l-3 3-120 120 120 120c7 7 8 18 3 26l-3 3c-7 7-18 8-26 3l-3-3-135-135c-7-7-8-18-2-26l2-3 135-135c8-8 21-8 29 0zm320 0c7-7 18-8 26-2l3 2 135 135 2 3c5 7 5 16 0 23l-2 3-135 135-3 2c-7 5-16 5-23 0l-3-2-3-3c-5-7-5-17 0-24l3-3 120-120-120-120-3-3c-5-8-4-19 3-26zm237-356h-792c-32 0-59 27-62 61v64h916v-58c0-35-25-63-56-66zm-792 42c12 0 21 9 21 21s-9 21-21 21-21-10-21-21 10-21 21-21zm84 0c11 0 20 9 20 21s-9 21-20 21-21-10-21-21 9-21 21-21zm83 0c12 0 21 9 21 21s-9 21-21 21-21-10-21-21 9-21 21-21z"/></svg>