<svg id="img" stroke="none" width="100%" height="100%" viewBox="0 0 1024 1024" xmlns="http://www.w3.org/2000/svg"><path d="m212.826 645.495c98.432 0 171.947-37.76 171.947-71.509v-55.595c-38.059 27.435-99.584 44.715-171.947 44.715s-133.931-17.28-171.947-44.715v55.595c0 33.749 73.515 71.509 171.947 71.509zm0 122.582c98.432 0 171.947-37.76 171.947-71.509v-54.912c-38.059 27.435-99.584 44.715-171.947 44.715s-133.931-17.28-171.947-44.715v54.912c0 33.749 73.515 71.509 171.947 71.509zm171.946 53.12h.085c0-.213-.085-.469-.085-.64v-56.32c-38.059 27.477-99.584 44.715-171.947 44.715s-133.931-17.237-171.947-44.715v56.96c0 33.749 73.515 71.509 171.947 71.509s171.947-37.76 171.947-71.509zm-171.946-441.984c-98.432 0-171.947 37.76-171.947 71.509 0 33.792 73.515 71.509 171.947 71.509s171.947-37.717 171.947-71.509c0-33.749-73.515-71.509-171.947-71.509zm0-40.832c121.301 0 212.821 48.299 212.821 112.341v369.835c0 .171-.085.427-.085.64h.085c0 64.085-91.52 112.384-212.821 112.384-115.755 0-204.16-43.989-212.053-103.723-.427-1.664-.768-3.413-.768-5.248v-373.888c0-64.043 91.477-112.341 212.821-112.341zm736.93-210.381c39.424 0 71.509 32.085 71.509 71.509v662.571c0 39.424-32.085 71.509-71.509 71.509h-404.651c-39.424 0-71.509-32.085-71.509-71.509v-662.571c0-39.424 32.085-71.509 71.509-71.509zm30.634 734.08v-662.571c0-16.896-13.739-30.677-30.635-30.677h-404.651c-16.896 0-30.635 13.781-30.635 30.677v662.571c0 16.896 13.739 30.635 30.635 30.635h404.651c16.896 0 30.635-13.739 30.635-30.635zm-79.867-594.573c16.853 0 30.635 13.739 30.635 30.635v80.939c0 16.896-13.781 30.635-30.635 30.635h-306.176c-16.896 0-30.677-13.739-30.677-30.635v-80.939c0-16.896 13.781-30.635 30.677-30.635zm-295.979 101.334h285.781v-60.501h-285.781zm13.367 114.803c18.645 0 33.792 15.104 33.792 33.792 0 18.645-15.147 33.792-33.792 33.792s-33.792-15.147-33.792-33.792c0-18.688 15.147-33.792 33.792-33.792zm129.519 0c18.645 0 33.792 15.104 33.792 33.792 0 18.645-15.147 33.792-33.792 33.792s-33.792-15.147-33.792-33.792c0-18.688 15.147-33.792 33.792-33.792zm129.502-2.812c18.645 0 33.792 15.104 33.792 33.792 0 18.645-15.147 33.792-33.792 33.792s-33.792-15.147-33.792-33.792c0-18.688 15.147-33.792 33.792-33.792zm-259.021 123.895c18.645 0 33.792 15.104 33.792 33.792 0 18.645-15.147 33.749-33.792 33.749s-33.792-15.104-33.792-33.749c0-18.688 15.147-33.792 33.792-33.792zm129.519 0c18.645 0 33.792 15.104 33.792 33.792 0 18.645-15.147 33.749-33.792 33.749s-33.792-15.104-33.792-33.749c0-18.688 15.147-33.792 33.792-33.792zm129.502 0c18.645 0 33.792 15.104 33.792 33.792 0 18.645-15.147 33.749-33.792 33.749s-33.792-15.104-33.792-33.749c0-18.688 15.147-33.792 33.792-33.792zm-259.021 123.875c18.645 0 33.792 15.104 33.792 33.792 0 18.645-15.147 33.749-33.792 33.749s-33.792-15.104-33.792-33.749c0-18.688 15.147-33.792 33.792-33.792zm129.519 0c18.645 0 33.792 15.104 33.792 33.792 0 18.645-15.147 33.749-33.792 33.749s-33.792-15.104-33.792-33.749c0-18.688 15.147-33.792 33.792-33.792zm129.502 0c18.645 0 33.792 15.104 33.792 33.792 0 18.645-15.147 33.749-33.792 33.749s-33.792-15.104-33.792-33.749c0-18.688 15.147-33.792 33.792-33.792z"/></svg>